<svg width="1440" height="4556" viewBox="0 0 1440 4556" fill="none" xmlns="http://www.w3.org/2000/svg">
<g clip-path="url(#clip0_2210_6)">
<rect width="1440" height="4556" fill="#FEFBED"/>
<ellipse cx="1202.93" cy="915.913" rx="2.92836" ry="2.91305" fill="#9C8300"/>
<ellipse cx="1231.04" cy="915.913" rx="2.92836" ry="2.91305" fill="#9C8300"/>
<ellipse cx="1231.04" cy="941.548" rx="2.92836" ry="2.91305" fill="#9C8300"/>
<ellipse cx="1202.93" cy="941.548" rx="2.92836" ry="2.91305" fill="#9C8300"/>
<ellipse cx="1257.98" cy="915.913" rx="2.92836" ry="2.91305" fill="#9C8300"/>
<ellipse cx="1286.09" cy="915.913" rx="2.92836" ry="2.91305" fill="#9C8300"/>
<ellipse cx="1286.09" cy="941.548" rx="2.92836" ry="2.91305" fill="#9C8300"/>
<ellipse cx="1257.98" cy="941.548" rx="2.92836" ry="2.91305" fill="#9C8300"/>
<ellipse cx="1313.03" cy="915.913" rx="2.92836" ry="2.91305" fill="#9C8300"/>
<ellipse cx="1341.15" cy="915.913" rx="2.92836" ry="2.91305" fill="#9C8300"/>
<ellipse cx="1341.15" cy="941.548" rx="2.92836" ry="2.91305" fill="#9C8300"/>
<ellipse cx="1313.03" cy="941.548" rx="2.92836" ry="2.91305" fill="#9C8300"/>
<ellipse cx="1202.93" cy="967.183" rx="2.92836" ry="2.91305" fill="#9C8300"/>
<ellipse cx="1231.04" cy="967.183" rx="2.92836" ry="2.91305" fill="#9C8300"/>
<ellipse cx="1231.04" cy="992.818" rx="2.92836" ry="2.91305" fill="#9C8300"/>
<ellipse cx="1202.93" cy="992.818" rx="2.92836" ry="2.91305" fill="#9C8300"/>
<ellipse cx="1257.98" cy="967.183" rx="2.92836" ry="2.91305" fill="#9C8300"/>
<ellipse cx="1286.09" cy="967.183" rx="2.92836" ry="2.91305" fill="#9C8300"/>
<ellipse cx="1286.09" cy="992.818" rx="2.92836" ry="2.91305" fill="#9C8300"/>
<ellipse cx="1257.98" cy="992.818" rx="2.92836" ry="2.91305" fill="#9C8300"/>
<ellipse cx="1313.03" cy="967.183" rx="2.92836" ry="2.91305" fill="#9C8300"/>
<ellipse cx="1341.15" cy="967.183" rx="2.92836" ry="2.91305" fill="#9C8300"/>
<ellipse cx="1341.15" cy="992.818" rx="2.92836" ry="2.91305" fill="#9C8300"/>
<ellipse cx="1313.03" cy="992.818" rx="2.92836" ry="2.91305" fill="#9C8300"/>
<ellipse cx="1202.93" cy="1018.45" rx="2.92836" ry="2.91305" fill="#9C8300"/>
<ellipse cx="1231.04" cy="1018.45" rx="2.92836" ry="2.91305" fill="#9C8300"/>
<ellipse cx="1231.04" cy="1044.09" rx="2.92836" ry="2.91305" fill="#9C8300"/>
<ellipse cx="1202.93" cy="1044.09" rx="2.92836" ry="2.91305" fill="#9C8300"/>
<ellipse cx="1257.98" cy="1018.45" rx="2.92836" ry="2.91305" fill="#9C8300"/>
<ellipse cx="1286.09" cy="1018.45" rx="2.92836" ry="2.91305" fill="#9C8300"/>
<ellipse cx="1286.09" cy="1044.09" rx="2.92836" ry="2.91305" fill="#9C8300"/>
<ellipse cx="1257.98" cy="1044.09" rx="2.92836" ry="2.91305" fill="#9C8300"/>
<ellipse cx="1313.03" cy="1018.45" rx="2.92836" ry="2.91305" fill="#9C8300"/>
<ellipse cx="1341.15" cy="1018.45" rx="2.92836" ry="2.91305" fill="#9C8300"/>
<ellipse cx="1341.15" cy="1044.09" rx="2.92836" ry="2.91305" fill="#9C8300"/>
<ellipse cx="1313.03" cy="1044.09" rx="2.92836" ry="2.91305" fill="#9C8300"/>
<ellipse cx="1366.93" cy="916.913" rx="2.92836" ry="2.91305" fill="#9C8300"/>
<ellipse cx="1395.04" cy="916.913" rx="2.92836" ry="2.91305" fill="#9C8300"/>
<ellipse cx="1395.04" cy="942.548" rx="2.92836" ry="2.91305" fill="#9C8300"/>
<ellipse cx="1366.93" cy="942.548" rx="2.92836" ry="2.91305" fill="#9C8300"/>
<ellipse cx="1421.98" cy="916.913" rx="2.92836" ry="2.91305" fill="#9C8300"/>
<ellipse cx="1421.98" cy="942.548" rx="2.92836" ry="2.91305" fill="#9C8300"/>
<ellipse cx="1366.93" cy="968.183" rx="2.92836" ry="2.91305" fill="#9C8300"/>
<ellipse cx="1395.04" cy="968.183" rx="2.92836" ry="2.91305" fill="#9C8300"/>
<ellipse cx="1395.04" cy="993.818" rx="2.92836" ry="2.91305" fill="#9C8300"/>
<ellipse cx="1366.93" cy="993.818" rx="2.92836" ry="2.91305" fill="#9C8300"/>
<ellipse cx="1421.98" cy="968.183" rx="2.92836" ry="2.91305" fill="#9C8300"/>
<ellipse cx="1421.98" cy="993.818" rx="2.92836" ry="2.91305" fill="#9C8300"/>
<ellipse cx="1366.93" cy="1019.45" rx="2.92836" ry="2.91305" fill="#9C8300"/>
<ellipse cx="1395.04" cy="1019.45" rx="2.92836" ry="2.91305" fill="#9C8300"/>
<ellipse cx="1395.04" cy="1045.09" rx="2.92836" ry="2.91305" fill="#9C8300"/>
<ellipse cx="1366.93" cy="1045.09" rx="2.92836" ry="2.91305" fill="#9C8300"/>
<ellipse cx="1421.98" cy="1019.45" rx="2.92836" ry="2.91305" fill="#9C8300"/>
<ellipse cx="1421.98" cy="1045.09" rx="2.92836" ry="2.91305" fill="#9C8300"/>
<ellipse cx="1269.82" cy="1519.81" rx="1.82209" ry="1.81256" fill="#9C8300"/>
<ellipse cx="1287.31" cy="1519.81" rx="1.82209" ry="1.81256" fill="#9C8300"/>
<ellipse cx="1287.31" cy="1535.76" rx="1.82209" ry="1.81256" fill="#9C8300"/>
<ellipse cx="1269.82" cy="1535.76" rx="1.82209" ry="1.81256" fill="#9C8300"/>
<ellipse cx="1304.08" cy="1519.81" rx="1.82209" ry="1.81256" fill="#9C8300"/>
<ellipse cx="1321.57" cy="1519.81" rx="1.82209" ry="1.81256" fill="#9C8300"/>
<ellipse cx="1321.57" cy="1535.76" rx="1.82209" ry="1.81256" fill="#9C8300"/>
<ellipse cx="1304.08" cy="1535.76" rx="1.82209" ry="1.81256" fill="#9C8300"/>
<ellipse cx="1338.33" cy="1519.81" rx="1.82209" ry="1.81256" fill="#9C8300"/>
<ellipse cx="1355.83" cy="1519.81" rx="1.82209" ry="1.81256" fill="#9C8300"/>
<ellipse cx="1355.83" cy="1535.76" rx="1.82209" ry="1.81256" fill="#9C8300"/>
<ellipse cx="1338.33" cy="1535.76" rx="1.82209" ry="1.81256" fill="#9C8300"/>
<ellipse cx="1269.82" cy="1551.71" rx="1.82209" ry="1.81256" fill="#9C8300"/>
<ellipse cx="1287.31" cy="1551.71" rx="1.82209" ry="1.81256" fill="#9C8300"/>
<ellipse cx="1287.31" cy="1567.66" rx="1.82209" ry="1.81256" fill="#9C8300"/>
<ellipse cx="1269.82" cy="1567.66" rx="1.82209" ry="1.81256" fill="#9C8300"/>
<ellipse cx="1304.08" cy="1551.71" rx="1.82209" ry="1.81256" fill="#9C8300"/>
<ellipse cx="1321.57" cy="1551.71" rx="1.82209" ry="1.81256" fill="#9C8300"/>
<ellipse cx="1321.57" cy="1567.66" rx="1.82209" ry="1.81256" fill="#9C8300"/>
<ellipse cx="1304.08" cy="1567.66" rx="1.82209" ry="1.81256" fill="#9C8300"/>
<ellipse cx="1338.33" cy="1551.71" rx="1.82209" ry="1.81256" fill="#9C8300"/>
<ellipse cx="1355.83" cy="1551.71" rx="1.82209" ry="1.81256" fill="#9C8300"/>
<ellipse cx="1355.83" cy="1567.66" rx="1.82209" ry="1.81256" fill="#9C8300"/>
<ellipse cx="1338.33" cy="1567.66" rx="1.82209" ry="1.81256" fill="#9C8300"/>
<ellipse cx="1269.82" cy="1583.61" rx="1.82209" ry="1.81256" fill="#9C8300"/>
<ellipse cx="1287.31" cy="1583.61" rx="1.82209" ry="1.81256" fill="#9C8300"/>
<ellipse cx="1287.31" cy="1599.57" rx="1.82209" ry="1.81256" fill="#9C8300"/>
<ellipse cx="1269.82" cy="1599.57" rx="1.82209" ry="1.81256" fill="#9C8300"/>
<ellipse cx="1304.08" cy="1583.61" rx="1.82209" ry="1.81256" fill="#9C8300"/>
<ellipse cx="1321.57" cy="1583.61" rx="1.82209" ry="1.81256" fill="#9C8300"/>
<ellipse cx="1321.57" cy="1599.57" rx="1.82209" ry="1.81256" fill="#9C8300"/>
<ellipse cx="1304.08" cy="1599.57" rx="1.82209" ry="1.81256" fill="#9C8300"/>
<ellipse cx="1338.33" cy="1583.61" rx="1.82209" ry="1.81256" fill="#9C8300"/>
<ellipse cx="1355.83" cy="1583.61" rx="1.82209" ry="1.81256" fill="#9C8300"/>
<ellipse cx="1355.83" cy="1599.57" rx="1.82209" ry="1.81256" fill="#9C8300"/>
<ellipse cx="1338.33" cy="1599.57" rx="1.82209" ry="1.81256" fill="#9C8300"/>
<ellipse cx="1371.87" cy="1520.43" rx="1.82209" ry="1.81256" fill="#9C8300"/>
<ellipse cx="1389.36" cy="1520.43" rx="1.82209" ry="1.81256" fill="#9C8300"/>
<ellipse cx="1389.36" cy="1536.39" rx="1.82209" ry="1.81256" fill="#9C8300"/>
<ellipse cx="1371.87" cy="1536.39" rx="1.82209" ry="1.81256" fill="#9C8300"/>
<ellipse cx="1406.12" cy="1520.43" rx="1.82209" ry="1.81256" fill="#9C8300"/>
<ellipse cx="1423.61" cy="1520.43" rx="1.82209" ry="1.81256" fill="#9C8300"/>
<ellipse cx="1423.61" cy="1536.39" rx="1.82209" ry="1.81256" fill="#9C8300"/>
<ellipse cx="1406.12" cy="1536.39" rx="1.82209" ry="1.81256" fill="#9C8300"/>
<ellipse cx="1440.38" cy="1520.43" rx="1.82209" ry="1.81256" fill="#9C8300"/>
<ellipse cx="1440.38" cy="1536.39" rx="1.82209" ry="1.81256" fill="#9C8300"/>
<ellipse cx="1371.87" cy="1552.34" rx="1.82209" ry="1.81256" fill="#9C8300"/>
<ellipse cx="1389.36" cy="1552.34" rx="1.82209" ry="1.81256" fill="#9C8300"/>
<ellipse cx="1389.36" cy="1568.29" rx="1.82209" ry="1.81256" fill="#9C8300"/>
<ellipse cx="1371.87" cy="1568.29" rx="1.82209" ry="1.81256" fill="#9C8300"/>
<ellipse cx="1406.12" cy="1552.34" rx="1.82209" ry="1.81256" fill="#9C8300"/>
<ellipse cx="1423.61" cy="1552.34" rx="1.82209" ry="1.81256" fill="#9C8300"/>
<ellipse cx="1423.61" cy="1568.29" rx="1.82209" ry="1.81256" fill="#9C8300"/>
<ellipse cx="1406.12" cy="1568.29" rx="1.82209" ry="1.81256" fill="#9C8300"/>
<ellipse cx="1440.38" cy="1552.34" rx="1.82209" ry="1.81256" fill="#9C8300"/>
<ellipse cx="1440.38" cy="1568.29" rx="1.82209" ry="1.81256" fill="#9C8300"/>
<ellipse cx="1371.87" cy="1584.24" rx="1.82209" ry="1.81256" fill="#9C8300"/>
<ellipse cx="1389.36" cy="1584.24" rx="1.82209" ry="1.81256" fill="#9C8300"/>
<ellipse cx="1389.36" cy="1600.19" rx="1.82209" ry="1.81256" fill="#9C8300"/>
<ellipse cx="1371.87" cy="1600.19" rx="1.82209" ry="1.81256" fill="#9C8300"/>
<ellipse cx="1406.12" cy="1584.24" rx="1.82209" ry="1.81256" fill="#9C8300"/>
<ellipse cx="1423.61" cy="1584.24" rx="1.82209" ry="1.81256" fill="#9C8300"/>
<ellipse cx="1423.61" cy="1600.19" rx="1.82209" ry="1.81256" fill="#9C8300"/>
<ellipse cx="1406.12" cy="1600.19" rx="1.82209" ry="1.81256" fill="#9C8300"/>
<ellipse cx="1440.38" cy="1584.24" rx="1.82209" ry="1.81256" fill="#9C8300"/>
<ellipse cx="1440.38" cy="1600.19" rx="1.82209" ry="1.81256" fill="#9C8300"/>
<ellipse cx="19.0416" cy="1514.91" rx="2.92836" ry="2.91305" fill="#9C8300"/>
<ellipse cx="19.0416" cy="1540.55" rx="2.92836" ry="2.91305" fill="#9C8300"/>
<ellipse cx="45.984" cy="1514.91" rx="2.92836" ry="2.91305" fill="#9C8300"/>
<ellipse cx="74.0924" cy="1514.91" rx="2.92836" ry="2.91305" fill="#9C8300"/>
<ellipse cx="74.0924" cy="1540.55" rx="2.92836" ry="2.91305" fill="#9C8300"/>
<ellipse cx="45.984" cy="1540.55" rx="2.92836" ry="2.91305" fill="#9C8300"/>
<ellipse cx="101.035" cy="1514.91" rx="2.92836" ry="2.91305" fill="#9C8300"/>
<ellipse cx="129.147" cy="1514.91" rx="2.92836" ry="2.91305" fill="#9C8300"/>
<ellipse cx="129.147" cy="1540.55" rx="2.92836" ry="2.91305" fill="#9C8300"/>
<ellipse cx="101.035" cy="1540.55" rx="2.92836" ry="2.91305" fill="#9C8300"/>
<ellipse cx="19.0416" cy="1566.18" rx="2.92836" ry="2.91305" fill="#9C8300"/>
<ellipse cx="19.0416" cy="1591.82" rx="2.92836" ry="2.91305" fill="#9C8300"/>
<ellipse cx="45.984" cy="1566.18" rx="2.92836" ry="2.91305" fill="#9C8300"/>
<ellipse cx="74.0924" cy="1566.18" rx="2.92836" ry="2.91305" fill="#9C8300"/>
<ellipse cx="74.0924" cy="1591.82" rx="2.92836" ry="2.91305" fill="#9C8300"/>
<ellipse cx="45.984" cy="1591.82" rx="2.92836" ry="2.91305" fill="#9C8300"/>
<ellipse cx="101.035" cy="1566.18" rx="2.92836" ry="2.91305" fill="#9C8300"/>
<ellipse cx="129.147" cy="1566.18" rx="2.92836" ry="2.91305" fill="#9C8300"/>
<ellipse cx="129.147" cy="1591.82" rx="2.92836" ry="2.91305" fill="#9C8300"/>
<ellipse cx="101.035" cy="1591.82" rx="2.92836" ry="2.91305" fill="#9C8300"/>
<ellipse cx="19.0416" cy="1617.45" rx="2.92836" ry="2.91305" fill="#9C8300"/>
<ellipse cx="19.0416" cy="1643.09" rx="2.92836" ry="2.91305" fill="#9C8300"/>
<ellipse cx="45.984" cy="1617.45" rx="2.92836" ry="2.91305" fill="#9C8300"/>
<ellipse cx="74.0924" cy="1617.45" rx="2.92836" ry="2.91305" fill="#9C8300"/>
<ellipse cx="74.0924" cy="1643.09" rx="2.92836" ry="2.91305" fill="#9C8300"/>
<ellipse cx="45.984" cy="1643.09" rx="2.92836" ry="2.91305" fill="#9C8300"/>
<ellipse cx="101.035" cy="1617.45" rx="2.92836" ry="2.91305" fill="#9C8300"/>
<ellipse cx="129.147" cy="1617.45" rx="2.92836" ry="2.91305" fill="#9C8300"/>
<ellipse cx="129.147" cy="1643.09" rx="2.92836" ry="2.91305" fill="#9C8300"/>
<ellipse cx="101.035" cy="1643.09" rx="2.92836" ry="2.91305" fill="#9C8300"/>
<g opacity="0.5">
<ellipse cx="1126.42" cy="2969.54" rx="8.45971" ry="8.41548" transform="rotate(-90 1126.42 2969.54)" fill="#9C8300"/>
<ellipse cx="1126.42" cy="2888.32" rx="8.45971" ry="8.41548" transform="rotate(-90 1126.42 2888.32)" fill="#9C8300"/>
<ellipse cx="1200.47" cy="2888.32" rx="8.45971" ry="8.41548" transform="rotate(-90 1200.47 2888.32)" fill="#9C8300"/>
<ellipse cx="1200.47" cy="2969.54" rx="8.45971" ry="8.41548" transform="rotate(-90 1200.47 2969.54)" fill="#9C8300"/>
<ellipse cx="1126.42" cy="2810.49" rx="8.45971" ry="8.41548" transform="rotate(-90 1126.42 2810.49)" fill="#9C8300"/>
<ellipse cx="1126.42" cy="2729.28" rx="8.45971" ry="8.41548" transform="rotate(-90 1126.42 2729.28)" fill="#9C8300"/>
<ellipse cx="1200.47" cy="2729.28" rx="8.45971" ry="8.41548" transform="rotate(-90 1200.47 2729.28)" fill="#9C8300"/>
<ellipse cx="1200.47" cy="2810.49" rx="8.45971" ry="8.41548" transform="rotate(-90 1200.47 2810.49)" fill="#9C8300"/>
<ellipse cx="1126.42" cy="2651.45" rx="8.45971" ry="8.41548" transform="rotate(-90 1126.42 2651.45)" fill="#9C8300"/>
<ellipse cx="1126.42" cy="2570.24" rx="8.45971" ry="8.41548" transform="rotate(-90 1126.42 2570.24)" fill="#9C8300"/>
<ellipse cx="1200.47" cy="2570.24" rx="8.45971" ry="8.41548" transform="rotate(-90 1200.47 2570.24)" fill="#9C8300"/>
<ellipse cx="1200.47" cy="2651.45" rx="8.45971" ry="8.41548" transform="rotate(-90 1200.47 2651.45)" fill="#9C8300"/>
<ellipse cx="1274.53" cy="2969.54" rx="8.45971" ry="8.41548" transform="rotate(-90 1274.53 2969.54)" fill="#9C8300"/>
<ellipse cx="1274.53" cy="2888.32" rx="8.45971" ry="8.41548" transform="rotate(-90 1274.53 2888.32)" fill="#9C8300"/>
<ellipse cx="1348.58" cy="2888.32" rx="8.45971" ry="8.41548" transform="rotate(-90 1348.58 2888.32)" fill="#9C8300"/>
<ellipse cx="1348.58" cy="2969.54" rx="8.45971" ry="8.41548" transform="rotate(-90 1348.58 2969.54)" fill="#9C8300"/>
<ellipse cx="1274.53" cy="2810.49" rx="8.45971" ry="8.41548" transform="rotate(-90 1274.53 2810.49)" fill="#9C8300"/>
<ellipse cx="1274.53" cy="2729.28" rx="8.45971" ry="8.41548" transform="rotate(-90 1274.53 2729.28)" fill="#9C8300"/>
<ellipse cx="1348.58" cy="2729.28" rx="8.45971" ry="8.41548" transform="rotate(-90 1348.58 2729.28)" fill="#9C8300"/>
<ellipse cx="1348.58" cy="2810.49" rx="8.45971" ry="8.41548" transform="rotate(-90 1348.58 2810.49)" fill="#9C8300"/>
<ellipse cx="1274.53" cy="2651.45" rx="8.45971" ry="8.41548" transform="rotate(-90 1274.53 2651.45)" fill="#9C8300"/>
<ellipse cx="1274.53" cy="2570.24" rx="8.45971" ry="8.41548" transform="rotate(-90 1274.53 2570.24)" fill="#9C8300"/>
<ellipse cx="1348.58" cy="2570.24" rx="8.45971" ry="8.41548" transform="rotate(-90 1348.58 2570.24)" fill="#9C8300"/>
<ellipse cx="1348.58" cy="2651.45" rx="8.45971" ry="8.41548" transform="rotate(-90 1348.58 2651.45)" fill="#9C8300"/>
<ellipse cx="1422.64" cy="2969.54" rx="8.45971" ry="8.41548" transform="rotate(-90 1422.64 2969.54)" fill="#9C8300"/>
<ellipse cx="1422.64" cy="2888.32" rx="8.45971" ry="8.41548" transform="rotate(-90 1422.64 2888.32)" fill="#9C8300"/>
<ellipse cx="1422.64" cy="2810.49" rx="8.45971" ry="8.41548" transform="rotate(-90 1422.64 2810.49)" fill="#9C8300"/>
<ellipse cx="1422.64" cy="2729.28" rx="8.45971" ry="8.41548" transform="rotate(-90 1422.64 2729.28)" fill="#9C8300"/>
<ellipse cx="1422.64" cy="2651.45" rx="8.45971" ry="8.41548" transform="rotate(-90 1422.64 2651.45)" fill="#9C8300"/>
<ellipse cx="1422.64" cy="2570.24" rx="8.45971" ry="8.41548" transform="rotate(-90 1422.64 2570.24)" fill="#9C8300"/>
<ellipse cx="1129.3" cy="2495.76" rx="8.45971" ry="8.41548" transform="rotate(-90 1129.3 2495.76)" fill="#9C8300"/>
<ellipse cx="1129.3" cy="2414.54" rx="8.45971" ry="8.41548" transform="rotate(-90 1129.3 2414.54)" fill="#9C8300"/>
<ellipse cx="1203.36" cy="2414.54" rx="8.45971" ry="8.41548" transform="rotate(-90 1203.36 2414.54)" fill="#9C8300"/>
<ellipse cx="1203.36" cy="2495.76" rx="8.45971" ry="8.41548" transform="rotate(-90 1203.36 2495.76)" fill="#9C8300"/>
<ellipse cx="1129.3" cy="2336.71" rx="8.45971" ry="8.41548" transform="rotate(-90 1129.3 2336.71)" fill="#9C8300"/>
<ellipse cx="1129.3" cy="2255.51" rx="8.45971" ry="8.41548" transform="rotate(-90 1129.3 2255.51)" fill="#9C8300"/>
<ellipse cx="1203.36" cy="2255.51" rx="8.45971" ry="8.41548" transform="rotate(-90 1203.36 2255.51)" fill="#9C8300"/>
<ellipse cx="1203.36" cy="2336.71" rx="8.45971" ry="8.41548" transform="rotate(-90 1203.36 2336.71)" fill="#9C8300"/>
<ellipse cx="1129.3" cy="2177.67" rx="8.45971" ry="8.41548" transform="rotate(-90 1129.3 2177.67)" fill="#9C8300"/>
<ellipse cx="1129.3" cy="2096.46" rx="8.45971" ry="8.41548" transform="rotate(-90 1129.3 2096.46)" fill="#9C8300"/>
<ellipse cx="1203.36" cy="2096.46" rx="8.45971" ry="8.41548" transform="rotate(-90 1203.36 2096.46)" fill="#9C8300"/>
<ellipse cx="1203.36" cy="2177.67" rx="8.45971" ry="8.41548" transform="rotate(-90 1203.36 2177.67)" fill="#9C8300"/>
<ellipse cx="1277.42" cy="2495.76" rx="8.45971" ry="8.41548" transform="rotate(-90 1277.42 2495.76)" fill="#9C8300"/>
<ellipse cx="1277.42" cy="2414.54" rx="8.45971" ry="8.41548" transform="rotate(-90 1277.42 2414.54)" fill="#9C8300"/>
<ellipse cx="1351.47" cy="2414.54" rx="8.45971" ry="8.41548" transform="rotate(-90 1351.47 2414.54)" fill="#9C8300"/>
<ellipse cx="1351.47" cy="2495.76" rx="8.45971" ry="8.41548" transform="rotate(-90 1351.47 2495.76)" fill="#9C8300"/>
<ellipse cx="1277.42" cy="2336.71" rx="8.45971" ry="8.41548" transform="rotate(-90 1277.42 2336.71)" fill="#9C8300"/>
<ellipse cx="1277.42" cy="2255.51" rx="8.45971" ry="8.41548" transform="rotate(-90 1277.42 2255.51)" fill="#9C8300"/>
<ellipse cx="1351.47" cy="2255.51" rx="8.45971" ry="8.41548" transform="rotate(-90 1351.47 2255.51)" fill="#9C8300"/>
<ellipse cx="1351.47" cy="2336.71" rx="8.45971" ry="8.41548" transform="rotate(-90 1351.47 2336.71)" fill="#9C8300"/>
<ellipse cx="1277.42" cy="2177.67" rx="8.45971" ry="8.41548" transform="rotate(-90 1277.42 2177.67)" fill="#9C8300"/>
<ellipse cx="1277.42" cy="2096.46" rx="8.45971" ry="8.41548" transform="rotate(-90 1277.42 2096.46)" fill="#9C8300"/>
<ellipse cx="1351.47" cy="2096.46" rx="8.45971" ry="8.41548" transform="rotate(-90 1351.47 2096.46)" fill="#9C8300"/>
<ellipse cx="1351.47" cy="2177.67" rx="8.45971" ry="8.41548" transform="rotate(-90 1351.47 2177.67)" fill="#9C8300"/>
<ellipse cx="1425.53" cy="2495.76" rx="8.45971" ry="8.41548" transform="rotate(-90 1425.53 2495.76)" fill="#9C8300"/>
<ellipse cx="1425.53" cy="2414.54" rx="8.45971" ry="8.41548" transform="rotate(-90 1425.53 2414.54)" fill="#9C8300"/>
<ellipse cx="1425.53" cy="2336.71" rx="8.45971" ry="8.41548" transform="rotate(-90 1425.53 2336.71)" fill="#9C8300"/>
<ellipse cx="1425.53" cy="2255.51" rx="8.45971" ry="8.41548" transform="rotate(-90 1425.53 2255.51)" fill="#9C8300"/>
<ellipse cx="1425.53" cy="2177.67" rx="8.45971" ry="8.41548" transform="rotate(-90 1425.53 2177.67)" fill="#9C8300"/>
<ellipse cx="1425.53" cy="2096.46" rx="8.45971" ry="8.41548" transform="rotate(-90 1425.53 2096.46)" fill="#9C8300"/>
</g>
<g opacity="0.26">
<ellipse cx="25.4437" cy="3254.06" rx="13.4847" ry="12.0622" fill="#9C8300"/>
<ellipse cx="25.4437" cy="3360.21" rx="13.4847" ry="12.0622" fill="#9C8300"/>
<ellipse cx="149.509" cy="3254.06" rx="13.4847" ry="12.0622" fill="#9C8300"/>
<ellipse cx="278.963" cy="3254.06" rx="13.4847" ry="12.0622" fill="#9C8300"/>
<ellipse cx="278.963" cy="3360.21" rx="13.4847" ry="12.0622" fill="#9C8300"/>
<ellipse cx="149.509" cy="3360.21" rx="13.4847" ry="12.0622" fill="#9C8300"/>
<ellipse cx="25.4437" cy="3466.36" rx="13.4847" ry="12.0622" fill="#9C8300"/>
<ellipse cx="25.4437" cy="3572.5" rx="13.4847" ry="12.0622" fill="#9C8300"/>
<ellipse cx="149.509" cy="3466.36" rx="13.4847" ry="12.0622" fill="#9C8300"/>
<ellipse cx="278.963" cy="3466.36" rx="13.4847" ry="12.0622" fill="#9C8300"/>
<ellipse cx="278.963" cy="3572.5" rx="13.4847" ry="12.0622" fill="#9C8300"/>
<ellipse cx="149.509" cy="3572.5" rx="13.4847" ry="12.0622" fill="#9C8300"/>
<ellipse cx="25.4437" cy="3678.65" rx="13.4847" ry="12.0622" fill="#9C8300"/>
<ellipse cx="25.4437" cy="3784.8" rx="13.4847" ry="12.0622" fill="#9C8300"/>
<ellipse cx="149.509" cy="3678.65" rx="13.4847" ry="12.0622" fill="#9C8300"/>
<ellipse cx="278.963" cy="3678.65" rx="13.4847" ry="12.0622" fill="#9C8300"/>
<ellipse cx="278.963" cy="3784.8" rx="13.4847" ry="12.0622" fill="#9C8300"/>
<ellipse cx="149.509" cy="3784.8" rx="13.4847" ry="12.0622" fill="#9C8300"/>
<ellipse cx="397.685" cy="3258.2" rx="13.4847" ry="12.0622" fill="#9C8300"/>
<ellipse cx="527.142" cy="3258.2" rx="13.4847" ry="12.0622" fill="#9C8300"/>
<ellipse cx="527.142" cy="3364.35" rx="13.4847" ry="12.0622" fill="#9C8300"/>
<ellipse cx="397.685" cy="3364.35" rx="13.4847" ry="12.0622" fill="#9C8300"/>
<ellipse cx="651.21" cy="3258.2" rx="13.4847" ry="12.0622" fill="#9C8300"/>
<ellipse cx="780.644" cy="3258.2" rx="13.4847" ry="12.0622" fill="#9C8300"/>
<ellipse cx="780.644" cy="3364.35" rx="13.4847" ry="12.0622" fill="#9C8300"/>
<ellipse cx="651.21" cy="3364.35" rx="13.4847" ry="12.0622" fill="#9C8300"/>
<ellipse cx="904.71" cy="3258.2" rx="13.4847" ry="12.0622" fill="#9C8300"/>
<ellipse cx="1034.16" cy="3258.2" rx="13.4847" ry="12.0622" fill="#9C8300"/>
<ellipse cx="1034.16" cy="3364.35" rx="13.4847" ry="12.0622" fill="#9C8300"/>
<ellipse cx="904.71" cy="3364.35" rx="13.4847" ry="12.0622" fill="#9C8300"/>
<ellipse cx="397.685" cy="3470.5" rx="13.4847" ry="12.0622" fill="#9C8300"/>
<ellipse cx="527.142" cy="3470.5" rx="13.4847" ry="12.0622" fill="#9C8300"/>
<ellipse cx="527.142" cy="3576.64" rx="13.4847" ry="12.0622" fill="#9C8300"/>
<ellipse cx="397.685" cy="3576.64" rx="13.4847" ry="12.0622" fill="#9C8300"/>
<ellipse cx="651.21" cy="3470.5" rx="13.4847" ry="12.0622" fill="#9C8300"/>
<ellipse cx="780.644" cy="3470.5" rx="13.4847" ry="12.0622" fill="#9C8300"/>
<ellipse cx="780.644" cy="3576.64" rx="13.4847" ry="12.0622" fill="#9C8300"/>
<ellipse cx="651.21" cy="3576.64" rx="13.4847" ry="12.0622" fill="#9C8300"/>
<ellipse cx="904.71" cy="3470.5" rx="13.4847" ry="12.0622" fill="#9C8300"/>
<ellipse cx="1034.16" cy="3470.5" rx="13.4847" ry="12.0622" fill="#9C8300"/>
<ellipse cx="1034.16" cy="3576.64" rx="13.4847" ry="12.0622" fill="#9C8300"/>
<ellipse cx="904.71" cy="3576.64" rx="13.4847" ry="12.0622" fill="#9C8300"/>
<ellipse cx="397.685" cy="3682.79" rx="13.4847" ry="12.0622" fill="#9C8300"/>
<ellipse cx="527.142" cy="3682.79" rx="13.4847" ry="12.0622" fill="#9C8300"/>
<ellipse cx="527.142" cy="3788.94" rx="13.4847" ry="12.0622" fill="#9C8300"/>
<ellipse cx="397.685" cy="3788.94" rx="13.4847" ry="12.0622" fill="#9C8300"/>
<ellipse cx="651.21" cy="3682.79" rx="13.4847" ry="12.0622" fill="#9C8300"/>
<ellipse cx="780.644" cy="3682.79" rx="13.4847" ry="12.0622" fill="#9C8300"/>
<ellipse cx="780.644" cy="3788.94" rx="13.4847" ry="12.0622" fill="#9C8300"/>
<ellipse cx="651.21" cy="3788.94" rx="13.4847" ry="12.0622" fill="#9C8300"/>
<ellipse cx="904.71" cy="3682.79" rx="13.4847" ry="12.0622" fill="#9C8300"/>
<ellipse cx="1034.16" cy="3682.79" rx="13.4847" ry="12.0622" fill="#9C8300"/>
<ellipse cx="1034.16" cy="3788.94" rx="13.4847" ry="12.0622" fill="#9C8300"/>
<ellipse cx="904.71" cy="3788.94" rx="13.4847" ry="12.0622" fill="#9C8300"/>
</g>
</g>
<defs>
<clipPath id="clip0_2210_6">
<rect width="1440" height="4556" fill="white"/>
</clipPath>
</defs>
</svg>
